<svg xmlns="http://www.w3.org/2000/svg" viewBox="0 0 220.11 205.54"><defs><style>.cls-1{fill:#9fd4d2;}.cls-2{fill:#233d4d;}</style></defs><g id="Vrstva_2" data-name="Vrstva 2"><g id="Vrstva_1-2" data-name="Vrstva 1"><path class="cls-1" d="M209.24,53.62c-1.74-5.21-4.6-5.21-6.35,0l-10.38,31c-1.74,5.22,1.33,9.48,6.83,9.48H212.8c5.5,0,8.57-4.26,6.82-9.48Z"/><path class="cls-1" d="M174.26,4.07c-.91-5.43-2.4-5.43-3.31,0L157.53,84.21a8.2,8.2,0,0,0,8.35,9.86h13.45a8.2,8.2,0,0,0,8.35-9.86Z"/><path class="cls-1" d="M141,34.66c-1.3-5.35-3.42-5.35-4.71,0l-12,49.69c-1.3,5.35,2.14,9.72,7.64,9.72h13.46c5.5,0,9-4.37,7.65-9.72Z"/><path class="cls-2" d="M114.33,135.8h-7.65V70.11h7.65Z"/><path class="cls-2" d="M128.7,115.84h1.22a2.76,2.76,0,0,0,2.43-1.06l7.38-10.71a3.61,3.61,0,0,1,1.4-1.18,4.69,4.69,0,0,1,1.88-.33h6.62l-9.72,13.26a6.79,6.79,0,0,1-2.23,2,5.48,5.48,0,0,1,1.55.87,6.78,6.78,0,0,1,1.31,1.47l9.9,15.21h-6.8a5.85,5.85,0,0,1-1.11-.09,2.78,2.78,0,0,1-.8-.27,2.39,2.39,0,0,1-.59-.44,4.32,4.32,0,0,1-.47-.6l-7.42-11.41a2.23,2.23,0,0,0-1-.88,4.27,4.27,0,0,0-1.67-.26H128.7v13.95h-7.6V102.56h7.6Z"/><path class="cls-2" d="M186.3,135.35h-5.89a2.62,2.62,0,0,1-1.6-.46,2.93,2.93,0,0,1-.92-1.19L176,128H163.49l-1.94,5.71a2.78,2.78,0,0,1-.89,1.14,2.46,2.46,0,0,1-1.58.51h-5.94l12.69-32.79h7.78Zm-12.08-12.54-3-9c-.22-.57-.46-1.24-.72-2s-.51-1.61-.76-2.51q-.34,1.38-.72,2.55c-.26.78-.5,1.45-.72,2l-3,8.93Z"/><path class="cls-2" d="M219.71,135.35h-6.88a2.93,2.93,0,0,1-2.75-1.44l-5.44-9.52a2.22,2.22,0,0,0-2.21-1.17H200.5v12.13h-7.61V102.56h10.67a21.72,21.72,0,0,1,6.06.74,11.33,11.33,0,0,1,4.1,2,7.79,7.79,0,0,1,2.3,3.08,10.25,10.25,0,0,1,.72,3.87,10.6,10.6,0,0,1-.42,3,9.61,9.61,0,0,1-1.26,2.62,10,10,0,0,1-2.06,2.15,10.84,10.84,0,0,1-2.83,1.55,7.25,7.25,0,0,1,1.4,1,6.8,6.8,0,0,1,1.17,1.36ZM203.56,118a7.64,7.64,0,0,0,2.64-.4,4.71,4.71,0,0,0,1.79-1.09,4.19,4.19,0,0,0,1-1.63,6.23,6.23,0,0,0,.32-2,4.23,4.23,0,0,0-1.41-3.38,6.55,6.55,0,0,0-4.35-1.21H200.5V118Z"/><path class="cls-2" d="M19.57,97.34v6.08H0V70.64H7.54v26.7Z"/><path class="cls-2" d="M56.53,87a17.74,17.74,0,0,1-1.22,6.61A15.89,15.89,0,0,1,51.89,99a15.72,15.72,0,0,1-5.31,3.55,18.08,18.08,0,0,1-6.9,1.28,18.09,18.09,0,0,1-6.91-1.28A15.65,15.65,0,0,1,24,93.63,18.69,18.69,0,0,1,24,80.4a15.56,15.56,0,0,1,8.78-8.84,17.91,17.91,0,0,1,6.91-1.28,17.89,17.89,0,0,1,6.9,1.29,15.57,15.57,0,0,1,8.73,8.85A17.72,17.72,0,0,1,56.53,87Zm-7.71,0a14.21,14.21,0,0,0-.63-4.38,9.19,9.19,0,0,0-1.79-3.3,7.75,7.75,0,0,0-2.87-2.07,9.75,9.75,0,0,0-3.85-.72,9.89,9.89,0,0,0-3.89.72,7.71,7.71,0,0,0-2.88,2.07,9.19,9.19,0,0,0-1.79,3.3,15.58,15.58,0,0,0,0,8.77,9.19,9.19,0,0,0,1.79,3.3,7.58,7.58,0,0,0,2.88,2.06,10.07,10.07,0,0,0,3.89.71,9.93,9.93,0,0,0,3.85-.71,7.62,7.62,0,0,0,2.87-2.06,9.19,9.19,0,0,0,1.79-3.3A14.19,14.19,0,0,0,48.82,87Z"/><path class="cls-2" d="M99.94,70.64v32.78H93.29V84.56c0-.43,0-.9,0-1.41s.06-1,.12-1.56L84.82,98.45a2.78,2.78,0,0,1-1.08,1.19,3,3,0,0,1-1.55.4h-1a3,3,0,0,1-1.55-.4,2.84,2.84,0,0,1-1.08-1.19l-8.63-16.9c0,.54.08,1.07.11,1.58s0,1,0,1.43v18.86H63.42V70.64h5.75c.33,0,.62,0,.86,0a2.15,2.15,0,0,1,.66.13,1.49,1.49,0,0,1,.52.35,2.68,2.68,0,0,1,.46.67L80,88.43c.3.57.58,1.17.86,1.78s.54,1.25.79,1.89c.25-.66.52-1.3.79-1.93s.57-1.23.88-1.8l8.34-16.56a2.68,2.68,0,0,1,.46-.67,1.49,1.49,0,0,1,.52-.35,2.15,2.15,0,0,1,.66-.13c.24,0,.53,0,.86,0Z"/><path class="cls-1" d="M11.63,151.91c1.75,5.22,4.61,5.22,6.35,0l10.38-31c1.75-5.22-1.32-9.49-6.82-9.49H8.08c-5.5,0-8.57,4.27-6.83,9.49Z"/><path class="cls-1" d="M46.61,201.47c.91,5.42,2.4,5.42,3.31,0l13.42-80.14A8.2,8.2,0,0,0,55,111.46H41.54a8.21,8.21,0,0,0-8.35,9.87Z"/><path class="cls-1" d="M79.87,170.87c1.29,5.35,3.41,5.35,4.7,0l12-49.69c1.29-5.34-2.15-9.72-7.65-9.72H75.49c-5.5,0-8.94,4.38-7.65,9.72Z"/></g></g></svg>