<?xml version="1.0" standalone="no"?>
<!DOCTYPE svg PUBLIC "-//W3C//DTD SVG 20010904//EN"
 "http://www.w3.org/TR/2001/REC-SVG-20010904/DTD/svg10.dtd">
<svg version="1.0" xmlns="http://www.w3.org/2000/svg"
 width="1576.000000pt" height="1576.000000pt" viewBox="0 0 1576.000000 1576.000000"
 preserveAspectRatio="xMidYMid meet">
<metadata>
Created by potrace 1.14, written by Peter Selinger 2001-2017
</metadata>
<g transform="translate(0.000000,1576.000000) scale(0.100000,-0.100000)"
fill="#000000" stroke="none">
<path d="M7847 15720 c-23 -27 -61 -123 -71 -180 -3 -14 -5 -25 -6 -25 -3 0
-15 -71 -25 -140 -2 -11 -8 -49 -15 -85 -6 -36 -12 -74 -14 -85 -4 -28 -18
-106 -22 -130 -2 -11 -6 -36 -9 -55 -3 -19 -6 -44 -9 -55 -2 -11 -9 -54 -16
-95 -7 -41 -15 -82 -18 -90 -3 -8 -4 -19 -3 -23 1 -5 -3 -34 -8 -65 -6 -32
-13 -73 -17 -92 -3 -19 -7 -44 -9 -55 -1 -11 -5 -33 -8 -50 -3 -16 -8 -48 -12
-70 -3 -22 -8 -53 -11 -70 -3 -16 -7 -41 -9 -55 -3 -14 -7 -41 -10 -60 -3 -19
-10 -56 -15 -83 -6 -26 -9 -51 -9 -55 1 -4 0 -9 -1 -12 -3 -10 -10 -45 -15
-85 -3 -22 -8 -53 -12 -70 -3 -16 -7 -43 -9 -60 -1 -16 -5 -41 -8 -55 -3 -14
-8 -38 -11 -55 -3 -16 -8 -43 -11 -60 -3 -16 -8 -46 -10 -65 -3 -19 -16 -97
-30 -175 -14 -77 -26 -147 -26 -155 0 -8 -5 -37 -10 -65 -5 -27 -11 -66 -14
-85 -3 -19 -7 -46 -10 -60 -3 -14 -7 -36 -9 -50 -5 -32 -13 -80 -26 -155 -6
-33 -13 -73 -15 -90 -6 -50 -14 -99 -19 -115 -2 -8 -6 -32 -9 -52 -10 -66 -17
-110 -22 -132 -3 -11 -7 -37 -10 -56 -3 -19 -12 -73 -20 -120 -8 -47 -17 -98
-19 -115 -9 -65 -21 -135 -31 -190 -4 -17 -34 -202 -50 -304 -3 -18 -8 -43
-10 -55 -3 -11 -7 -36 -9 -55 -2 -19 -9 -57 -14 -85 -6 -28 -13 -69 -16 -91
-8 -57 -14 -93 -25 -150 -5 -27 -12 -68 -15 -90 -3 -23 -8 -52 -10 -65 -9 -44
-14 -74 -20 -115 -6 -41 -11 -72 -21 -115 -3 -14 -7 -41 -9 -60 -2 -19 -7 -46
-10 -60 -3 -14 -7 -41 -10 -60 -3 -19 -7 -45 -9 -56 -6 -29 -17 -93 -21 -129
-3 -16 -7 -41 -9 -55 -3 -14 -8 -45 -12 -70 -6 -45 -11 -71 -14 -80 -3 -7 -4
-14 -15 -90 -5 -36 -9 -67 -10 -70 -3 -13 -19 -96 -20 -105 -1 -11 -15 -97
-21 -135 -2 -14 -7 -41 -10 -60 -3 -19 -7 -42 -9 -50 -3 -8 -7 -33 -10 -55 -3
-22 -11 -67 -17 -100 -5 -33 -11 -69 -13 -80 -7 -56 -16 -112 -20 -125 -5 -16
-10 -50 -20 -115 -3 -23 -8 -52 -10 -65 -9 -43 -18 -94 -20 -115 -2 -26 -16
-104 -23 -130 -2 -11 -6 -65 -7 -120 -5 -191 57 -348 193 -482 50 -50 173
-133 206 -139 6 -1 30 -9 54 -18 23 -8 42 -13 42 -11 0 3 12 0 28 -6 15 -6 81
-12 148 -14 67 -1 126 -5 133 -9 6 -4 11 -3 11 1 0 5 19 8 43 6 23 -2 47 -3
52 -3 6 0 48 1 95 3 47 1 91 -2 98 -6 7 -6 12 -6 12 0 0 5 15 8 33 6 17 -2 38
-4 45 -3 6 0 29 0 50 0 43 0 87 1 122 4 14 1 33 -2 43 -7 9 -4 17 -4 17 0 0 4
35 7 77 5 93 -3 85 -3 153 1 30 1 61 -1 68 -6 6 -5 12 -6 12 -1 0 5 35 10 78
11 42 0 86 3 97 6 69 17 111 30 121 38 6 5 13 7 15 4 3 -2 43 22 89 53 147
100 259 263 286 417 10 53 10 211 1 255 -4 19 -9 46 -12 60 -3 23 -10 57 -19
105 -2 11 -7 43 -11 70 -12 80 -14 89 -18 110 -3 11 -8 40 -12 65 -4 25 -9 54
-12 65 -2 11 -6 34 -7 50 -2 17 -8 57 -15 90 -6 33 -13 78 -17 100 -5 38 -40
243 -50 295 -3 14 -7 43 -10 65 -2 22 -7 46 -9 53 -3 8 -8 37 -11 65 -7 56
-11 82 -14 82 -1 0 -3 11 -4 25 -2 14 -5 37 -9 50 -3 14 -9 48 -12 75 -4 28
-9 58 -11 68 -3 10 -7 32 -10 50 -2 18 -6 43 -9 57 -2 14 -7 39 -9 55 -3 17
-8 46 -11 65 -4 19 -9 47 -11 63 -2 15 -6 39 -8 55 -7 42 -16 94 -22 125 -3
16 -7 38 -9 50 -1 12 -8 54 -14 92 -11 67 -15 90 -26 145 -7 39 -26 152 -30
180 -7 44 -33 204 -50 295 -6 33 -23 136 -29 175 -3 14 -5 27 -6 30 -2 3 -2 8
-1 12 0 4 -4 30 -9 57 -5 28 -12 69 -15 93 -8 59 -10 70 -18 93 -3 11 -9 38
-11 60 -3 22 -8 55 -11 73 -3 17 -7 44 -9 60 -4 25 -13 78 -22 127 -3 11 -7
43 -10 70 -3 28 -8 53 -10 56 -4 6 -13 58 -19 104 -2 17 -11 68 -19 115 -8 47
-17 103 -20 124 -4 21 -8 48 -11 60 -2 12 -7 37 -10 56 -2 19 -6 44 -9 55 -2
11 -9 54 -16 95 -6 41 -14 86 -16 100 -3 14 -7 39 -10 55 -3 17 -14 84 -26
150 -11 66 -22 131 -23 145 -2 14 -6 39 -9 55 -3 17 -8 44 -11 60 -3 17 -7 39
-9 50 -7 40 -26 161 -30 195 -3 19 -5 35 -6 35 -2 0 -16 71 -25 135 -2 14 -11
66 -19 115 -8 50 -18 106 -21 125 -3 19 -7 44 -9 55 -2 11 -7 38 -11 60 -3 22
-19 117 -35 210 -38 222 -48 283 -70 415 -5 30 -14 82 -20 115 -6 33 -13 76
-15 95 -17 113 -64 257 -96 291 -34 36 -41 36 -72 -1z"/>
<path d="M5144 13291 c-71 -43 -120 -160 -180 -423 -2 -10 -6 -27 -9 -38 -3
-11 -7 -29 -10 -41 -2 -11 -7 -29 -10 -40 -4 -10 -8 -31 -10 -47 -2 -15 -4
-27 -5 -27 -1 0 -3 -7 -5 -15 -2 -8 -6 -24 -9 -35 -3 -11 -10 -42 -16 -70 -6
-27 -13 -56 -15 -63 -3 -7 -5 -16 -6 -20 -1 -4 -8 -32 -16 -62 -7 -30 -16 -66
-19 -80 -3 -14 -10 -43 -16 -65 -5 -22 -12 -48 -14 -57 -2 -10 -6 -26 -8 -35
-12 -50 -28 -120 -31 -136 -2 -10 -7 -28 -11 -40 -5 -12 -8 -26 -9 -32 -1 -10
-8 -39 -25 -105 -7 -29 -39 -163 -46 -192 -1 -5 -3 -11 -4 -15 -1 -5 -2 -12
-1 -16 1 -4 -3 -16 -8 -25 -5 -10 -12 -36 -15 -58 -3 -21 -19 -91 -36 -154
-16 -63 -33 -131 -36 -150 -3 -19 -8 -38 -11 -43 -2 -4 -6 -18 -9 -32 -2 -13
-25 -109 -50 -212 -25 -103 -48 -197 -50 -208 -2 -11 -6 -30 -8 -43 -3 -12 -7
-26 -10 -30 -3 -5 -7 -19 -9 -33 -6 -28 -22 -97 -113 -474 -4 -16 -8 -34 -10
-40 -3 -12 -83 -343 -90 -370 -2 -11 -7 -33 -10 -49 -2 -16 -8 -34 -11 -39 -3
-6 -7 -20 -9 -31 -3 -25 -4 -29 -38 -166 -31 -123 -37 -148 -41 -175 -2 -11
-13 -56 -25 -100 -52 -198 -69 -298 -65 -390 2 -49 9 -103 15 -120 6 -16 11
-31 11 -32 -4 -23 67 -156 112 -210 45 -54 136 -121 202 -149 72 -30 80 -33
125 -45 54 -14 232 -23 318 -16 23 2 42 -1 42 -6 0 -6 5 -6 13 -1 14 11 77 11
93 2 5 -4 16 -3 24 2 7 4 23 4 36 0 12 -5 25 -6 28 -3 10 10 190 9 204 0 7 -6
12 -6 12 0 0 5 19 8 43 6 23 -2 47 -3 52 -3 6 0 53 1 105 3 52 1 101 -1 108
-6 7 -6 12 -6 12 0 0 5 19 8 43 6 84 -7 221 2 277 17 25 7 50 13 55 15 6 1 23
7 38 13 16 7 30 12 33 12 29 0 234 167 234 192 0 4 11 23 24 43 26 37 61 134
71 195 10 59 8 192 -4 245 -6 28 -21 91 -32 140 -11 50 -23 97 -26 105 -3 8
-7 22 -9 30 -3 15 -30 126 -40 165 -5 19 -7 29 -18 80 -3 11 -23 94 -46 185
-22 91 -43 176 -46 190 -3 14 -12 52 -21 85 -14 57 -17 70 -27 113 -2 9 -9 37
-16 62 -7 25 -14 54 -16 65 -14 65 -33 145 -48 203 -3 12 -8 30 -10 40 -9 35
-28 117 -31 132 -2 8 -17 71 -35 140 -18 69 -33 133 -35 143 -3 10 -6 26 -9
35 -3 9 -7 28 -10 42 -3 14 -17 72 -31 130 -15 58 -28 113 -31 123 -2 9 -6 27
-10 40 -3 12 -7 31 -9 42 -3 11 -16 65 -31 120 -14 55 -26 107 -26 115 0 8 -3
24 -8 35 -8 17 -54 204 -65 260 -6 31 -13 60 -15 60 -1 0 -4 13 -6 29 -3 16
-12 55 -20 85 -8 31 -17 63 -19 72 -2 8 -17 74 -35 145 -17 71 -34 138 -37
149 -2 11 -6 29 -8 40 -2 11 -8 35 -14 53 -5 18 -10 35 -10 37 -1 3 -1 6 -2 8
0 1 -2 11 -4 22 -2 11 -9 40 -15 65 -11 43 -15 58 -24 98 -2 9 -16 64 -31 122
-14 58 -28 116 -31 130 -3 14 -8 34 -11 45 -4 11 -8 27 -9 35 -5 36 -43 149
-66 195 -29 61 -55 92 -90 111 -33 17 -27 18 -64 -5z"/>
<path d="M10514 11776 c-36 -13 -94 -60 -94 -75 0 -6 -3 -11 -8 -11 -18 0
-112 -211 -136 -305 -2 -5 -6 -17 -9 -25 -9 -24 -98 -293 -103 -310 -5 -20
-42 -131 -51 -150 -3 -8 -7 -19 -8 -25 -3 -11 -281 -839 -291 -865 -3 -8 -6
-17 -6 -20 -1 -3 -12 -36 -25 -75 -14 -38 -26 -74 -27 -80 -2 -5 -6 -17 -9
-25 -3 -8 -29 -85 -57 -170 -28 -85 -53 -162 -57 -170 -3 -8 -7 -19 -8 -25 -2
-5 -39 -118 -84 -251 -82 -243 -87 -260 -98 -324 -8 -47 -8 -157 1 -200 21
-109 62 -187 139 -263 97 -96 226 -153 368 -161 25 -1 51 -6 57 -10 7 -4 12
-4 12 1 0 4 35 7 77 5 102 -3 94 -3 123 1 14 2 31 -1 38 -6 7 -6 12 -6 12 0 0
5 19 8 43 6 42 -4 79 -3 130 1 16 1 30 -1 33 -6 3 -5 11 -5 17 -1 17 10 150
10 165 -1 6 -5 12 -5 12 0 0 5 28 8 62 6 67 -2 81 -2 101 -1 6 0 30 0 52 0 22
-1 54 0 70 2 17 1 36 -2 43 -7 6 -4 12 -5 12 0 0 5 44 9 99 10 203 1 368 76
472 214 24 33 65 106 68 122 1 4 3 13 5 20 2 7 8 29 13 49 10 34 9 215 0 249
-2 8 -7 29 -11 45 -4 17 -11 39 -16 50 -5 11 -23 65 -40 120 -18 55 -38 116
-45 135 -12 29 -127 375 -131 390 0 3 -4 14 -8 25 -22 58 -28 74 -27 77 0 2
-11 35 -24 73 -14 39 -27 78 -30 87 -7 29 -166 502 -174 518 -5 9 -12 31 -16
50 -4 19 -13 45 -21 58 -8 12 -12 22 -10 22 3 0 -22 80 -56 178 -33 97 -61
182 -62 189 -1 7 -5 16 -9 19 -4 4 -7 13 -7 20 0 7 -5 25 -11 41 -6 15 -10 28
-9 28 1 0 -4 14 -10 30 -7 17 -13 37 -16 45 -11 46 -153 450 -168 477 -9 18
-17 36 -17 40 -2 13 -40 65 -73 101 -54 58 -108 78 -162 58z"/>
<path d="M4578 7505 c-2 -2 -23 -6 -47 -10 -98 -14 -223 -74 -292 -138 -123
-114 -180 -303 -148 -487 8 -42 304 -959 336 -1040 8 -20 8 -20 18 -55 4 -16
10 -34 14 -40 3 -5 6 -12 6 -15 3 -20 80 -248 88 -257 5 -7 7 -13 4 -13 -3 0
0 -15 8 -34 8 -18 16 -44 19 -57 6 -26 83 -261 97 -294 5 -11 40 -119 80 -240
39 -121 75 -229 79 -240 8 -20 16 -44 19 -57 1 -4 9 -27 17 -50 9 -24 17 -50
19 -58 12 -49 86 -244 111 -290 39 -73 111 -146 158 -158 77 -22 161 39 222
159 29 58 207 560 219 619 0 3 18 57 40 120 22 63 40 117 40 120 1 3 4 12 8
20 3 8 11 33 18 55 6 22 16 46 22 53 5 6 7 12 4 12 -3 0 4 28 17 63 12 34 23
65 24 69 5 18 162 489 169 508 3 8 7 20 9 25 2 9 220 658 228 680 2 6 4 12 4
15 0 3 6 19 12 35 7 17 13 37 16 45 2 8 17 56 35 105 47 138 66 230 63 320 -3
87 -4 96 -29 170 -48 139 -164 248 -330 311 -22 8 -23 8 -75 19 -32 8 -1295
17 -1302 10z"/>
<path d="M10046 7502 c-2 -1 -35 -4 -73 -7 -39 -2 -81 -9 -94 -14 -13 -5 -28
-9 -34 -10 -103 -13 -272 -133 -341 -243 -29 -46 -69 -138 -80 -184 -9 -38
-14 -256 -6 -268 3 -6 7 -19 8 -31 3 -29 11 -65 23 -102 5 -18 8 -33 5 -33 -3
0 0 -8 5 -17 5 -10 11 -31 15 -48 3 -16 12 -57 21 -90 8 -33 17 -71 20 -85 2
-14 9 -40 14 -57 5 -18 8 -33 5 -33 -3 0 0 -8 5 -17 5 -10 12 -31 15 -48 3
-16 10 -49 16 -72 5 -24 15 -62 20 -85 6 -24 13 -56 16 -73 3 -16 10 -38 15
-47 5 -10 8 -18 5 -18 -2 0 0 -16 6 -36 5 -20 11 -44 13 -53 2 -9 18 -72 35
-141 18 -69 34 -134 36 -145 6 -33 12 -55 39 -165 15 -58 28 -112 30 -120 2
-8 8 -35 15 -60 7 -25 14 -56 17 -70 2 -13 16 -67 30 -120 14 -52 25 -102 25
-110 0 -8 3 -24 8 -35 7 -17 52 -198 65 -260 2 -11 6 -27 8 -35 19 -72 127
-524 128 -535 0 -3 6 -23 14 -45 8 -22 12 -40 10 -40 -2 0 1 -15 6 -32 6 -18
12 -44 15 -57 3 -13 11 -50 19 -83 8 -32 22 -84 30 -116 8 -33 17 -70 19 -83
5 -21 40 -167 50 -209 2 -8 9 -33 15 -55 6 -22 12 -51 15 -65 2 -14 5 -25 6
-25 1 0 4 -11 7 -25 2 -14 6 -29 7 -35 6 -20 16 -63 41 -165 15 -58 27 -109
29 -115 1 -5 9 -37 16 -70 16 -70 13 -58 29 -115 15 -55 62 -173 70 -180 4 -3
14 -17 24 -33 25 -39 74 -58 107 -42 66 34 111 129 170 365 12 47 23 92 25
100 2 8 8 35 15 60 13 47 18 68 26 110 3 14 14 61 25 105 11 44 21 88 22 97 1
10 5 18 10 18 4 0 6 4 3 8 -5 8 9 79 21 112 3 8 8 24 10 35 2 11 11 48 19 83
9 35 17 68 18 75 1 7 5 21 9 32 3 11 8 31 11 45 3 14 14 62 25 107 11 45 22
92 25 105 9 40 14 61 36 148 12 47 24 96 26 110 3 14 11 46 19 73 8 26 11 47
8 47 -3 0 0 6 6 13 6 8 9 16 6 19 -3 2 0 20 6 39 6 19 12 43 14 54 2 11 4 21
5 23 3 3 3 2 20 77 17 75 17 74 20 78 1 1 3 11 5 22 2 11 6 31 10 45 3 14 8
36 11 50 2 14 7 32 10 40 3 8 8 26 10 40 3 14 14 59 25 100 11 41 22 88 25
104 3 16 7 32 9 36 2 4 7 22 10 41 9 45 13 63 15 67 3 2 3 2 15 57 4 22 9 45
10 50 2 6 8 30 15 55 7 25 14 54 15 65 1 11 4 21 5 23 1 1 3 5 4 10 10 38 17
70 20 87 4 19 98 409 113 465 3 14 8 34 10 45 2 11 8 38 14 60 6 22 13 50 15
63 3 12 18 78 35 145 17 67 33 130 35 140 2 9 6 25 8 35 2 9 20 85 41 167 20
83 39 168 43 190 9 53 8 192 -2 230 -4 17 -8 37 -8 45 0 31 -89 197 -126 235
-43 44 -88 84 -118 102 -27 18 -97 51 -114 55 -8 2 -17 6 -20 10 -3 4 -19 9
-35 12 -17 3 -41 8 -55 11 -14 3 -47 8 -75 11 -27 3 -55 7 -62 9 -7 2 -15 0
-18 -4 -3 -5 -21 -5 -40 -1 -19 4 -37 4 -40 0 -3 -4 -21 -4 -40 0 -19 4 -37 5
-39 1 -2 -3 -205 -4 -451 -1 -246 3 -448 4 -449 2z"/>
<path d="M7160 7485 c-114 -27 -237 -94 -314 -171 -77 -78 -147 -199 -172
-299 -2 -5 -6 -21 -9 -35 -12 -43 -15 -191 -5 -234 4 -23 11 -57 14 -76 3 -19
8 -46 10 -60 3 -14 7 -41 10 -60 3 -19 8 -46 10 -60 3 -14 7 -41 10 -60 3 -19
8 -46 11 -60 2 -13 7 -42 10 -65 3 -22 14 -89 25 -150 22 -127 32 -190 36
-225 1 -14 3 -25 4 -25 2 0 6 -21 24 -130 18 -112 22 -138 36 -210 5 -27 11
-68 14 -90 6 -47 14 -88 23 -130 4 -16 6 -33 5 -38 -1 -4 2 -26 7 -50 5 -23
12 -64 16 -91 3 -27 8 -52 10 -55 1 -3 6 -30 10 -60 4 -30 9 -63 11 -75 5 -20
11 -58 33 -191 6 -33 17 -103 26 -155 25 -144 28 -163 29 -187 1 -13 3 -23 6
-23 3 0 6 -12 7 -27 2 -36 11 -96 23 -153 5 -25 12 -63 15 -85 3 -22 8 -48 11
-57 3 -9 7 -34 9 -55 2 -21 6 -51 9 -68 3 -16 11 -59 16 -95 11 -66 14 -84 31
-180 5 -30 12 -71 15 -90 3 -19 7 -46 10 -60 2 -14 7 -38 9 -55 2 -16 16 -97
30 -180 15 -82 28 -166 31 -185 2 -19 6 -44 9 -56 2 -12 7 -39 10 -60 3 -21 8
-50 11 -64 3 -14 8 -43 10 -65 3 -22 7 -47 9 -55 3 -8 7 -33 10 -55 4 -22 8
-51 11 -65 3 -14 7 -41 10 -60 2 -19 7 -46 10 -60 2 -14 7 -38 9 -55 3 -16 7
-41 10 -55 3 -14 8 -43 11 -65 8 -56 26 -163 29 -175 1 -3 5 -27 9 -55 13 -83
16 -99 21 -125 3 -14 8 -38 10 -55 2 -16 7 -46 10 -65 7 -39 10 -57 19 -115 3
-23 9 -52 12 -65 3 -14 7 -43 10 -65 5 -39 8 -59 17 -100 3 -11 8 -42 11 -70
4 -27 9 -57 11 -65 2 -8 6 -33 10 -55 3 -22 7 -47 10 -55 2 -8 7 -35 10 -60 2
-25 7 -55 9 -66 2 -12 7 -37 10 -55 3 -19 8 -45 11 -59 2 -14 7 -41 9 -60 6
-36 12 -74 26 -150 5 -24 6 -48 4 -52 -3 -5 -2 -8 3 -8 4 0 8 -12 9 -27 0 -16
4 -46 8 -68 4 -22 9 -51 12 -65 2 -14 6 -34 8 -45 2 -11 7 -40 11 -65 3 -25 9
-58 12 -75 2 -16 6 -41 8 -55 5 -28 45 -240 49 -255 40 -154 86 -213 132 -174
31 25 69 125 90 234 2 11 6 31 9 45 8 38 18 113 19 133 0 9 3 17 6 17 3 0 6
10 6 23 0 12 6 54 13 92 7 39 14 84 17 100 3 17 7 41 9 55 2 14 6 39 9 55 14
83 38 223 42 245 3 14 7 41 10 60 2 19 8 58 14 85 5 28 12 66 14 85 3 19 8 46
10 60 3 14 7 43 11 64 3 21 8 48 10 60 3 12 7 37 10 56 2 19 6 46 9 60 3 14 7
41 10 60 3 19 8 47 11 61 3 14 7 41 9 60 3 19 5 34 6 34 1 0 3 13 5 28 2 16
11 70 20 120 22 129 23 138 29 177 7 40 13 80 22 130 4 19 8 49 10 65 2 17 11
65 19 108 8 43 14 81 14 85 -1 4 0 9 1 12 3 8 9 42 15 89 3 25 8 48 11 52 3 5
7 28 9 51 2 24 7 54 10 68 3 14 8 41 10 60 2 19 6 44 9 55 2 11 9 52 15 90 17
107 19 120 21 120 1 0 3 11 5 25 2 14 6 39 9 55 10 71 17 111 21 130 2 11 7
40 10 65 7 52 13 85 15 85 2 0 7 26 14 80 3 28 8 61 11 75 3 14 7 39 10 55 2
17 7 41 10 55 3 14 7 47 11 75 3 27 7 52 9 55 2 3 6 30 10 60 4 30 8 57 10 60
2 3 6 26 10 50 3 25 8 52 10 60 2 8 6 38 10 65 3 28 10 68 15 90 5 22 11 60
15 85 5 39 17 110 29 175 2 11 7 42 10 68 4 27 10 59 12 70 8 33 13 68 18 107
3 19 5 35 6 35 2 0 6 26 13 85 4 25 13 79 21 120 22 114 27 144 28 160 0 8 4
33 8 55 5 22 11 58 14 80 4 22 16 94 27 160 11 66 22 131 24 145 2 14 6 41 9
60 10 57 25 143 31 178 10 65 15 93 21 125 3 17 8 42 9 55 5 34 26 163 32 192
2 14 6 35 8 47 2 12 6 34 9 50 3 15 8 48 11 73 3 25 8 52 10 60 3 8 7 33 10
55 2 22 7 51 10 65 3 14 8 41 11 60 3 19 10 60 15 90 6 30 12 69 15 85 8 48 5
180 -4 206 -5 13 -8 32 -7 41 2 10 -1 20 -6 24 -5 3 -9 13 -9 22 0 26 -63 152
-93 188 -15 18 -27 35 -27 38 0 8 -82 82 -129 117 -49 35 -129 73 -191 89 -25
7 -54 15 -65 18 -11 3 -315 7 -675 8 -507 2 -667 -1 -710 -11z"/>
</g>
</svg>
